<!--?xml version="1.0" standalone="no"?-->              <svg id="sw-js-blob-svg" viewBox="0 0 100 100" xmlns="http://www.w3.org/2000/svg">                    <defs>                         <linearGradient id="sw-gradient" x1="0" x2="1" y1="1" y2="0">                            <stop id="stop1" stop-color="rgba(55, 120, 79, 1)" offset="0%"></stop>                            <stop id="stop2" stop-color="rgba(62, 135, 197, 1)" offset="100%"></stop>                        </linearGradient>                    </defs>                <path fill="url(#sw-gradient)" d="M25.6,-31.2C31.6,-25.5,33.6,-15.9,34.7,-6.6C35.7,2.6,35.6,11.6,31.4,17.4C27.2,23.3,18.9,26.1,10.3,29.8C1.8,33.5,-6.9,38.2,-13.9,36.5C-21,34.7,-26.3,26.5,-31.9,17.9C-37.4,9.3,-43.1,0.4,-41.5,-7C-39.8,-14.4,-30.8,-20.2,-22.7,-25.5C-14.5,-30.9,-7.3,-35.8,1.3,-37.3C9.8,-38.9,19.6,-37,25.6,-31.2Z" width="100%" height="100%" transform="translate(50 50)" stroke-width="0" style="transition: all 0.3s ease 0s;" stroke="url(#sw-gradient)"></path>              </svg>