<!--?xml version="1.0" standalone="no"?-->              <svg id="sw-js-blob-svg" viewBox="0 0 100 100" xmlns="http://www.w3.org/2000/svg">                    <defs>                         <linearGradient id="sw-gradient" x1="0" x2="1" y1="1" y2="0">                            <stop id="stop1" stop-color="rgba(54, 121, 79, 1)" offset="0%"></stop>                            <stop id="stop2" stop-color="rgba(208, 2, 3, 1)" offset="100%"></stop>                        </linearGradient>                    </defs>                <path fill="url(#sw-gradient)" d="M22.6,-25.7C29.8,-21,36.3,-14.3,37.4,-6.8C38.4,0.7,34.1,8.9,29.2,16.5C24.4,24,19,30.8,11.4,35.3C3.8,39.8,-6.1,41.8,-15.2,39.5C-24.3,37.2,-32.7,30.4,-36.4,22C-40.1,13.5,-39.3,3.4,-36.4,-5.2C-33.4,-13.8,-28.4,-20.9,-22,-25.7C-15.6,-30.6,-7.8,-33.2,0,-33.2C7.8,-33.2,15.5,-30.4,22.6,-25.7Z" width="100%" height="100%" transform="translate(50 50)" stroke-width="0" style="transition: all 0.3s ease 0s;"></path>              </svg>