<svg id="wave" style="transform:rotate(0deg); transition: 0.3s" viewBox="0 0 1440 100" version="1.1" xmlns="http://www.w3.org/2000/svg"><defs><linearGradient id="sw-gradient-0" x1="0" x2="0" y1="1" y2="0"><stop stop-color="rgba(55, 120, 79, 1)" offset="0%"></stop><stop stop-color="rgba(54, 121, 79, 1)" offset="100%"></stop></linearGradient></defs><path style="transform:translate(0, 0px); opacity:1" fill="url(#sw-gradient-0)" d="M0,40L48,46.7C96,53,192,67,288,66.7C384,67,480,53,576,48.3C672,43,768,47,864,51.7C960,57,1056,63,1152,61.7C1248,60,1344,50,1440,38.3C1536,27,1632,13,1728,15C1824,17,1920,33,2016,40C2112,47,2208,43,2304,38.3C2400,33,2496,27,2592,25C2688,23,2784,27,2880,35C2976,43,3072,57,3168,55C3264,53,3360,37,3456,36.7C3552,37,3648,53,3744,50C3840,47,3936,23,4032,25C4128,27,4224,53,4320,63.3C4416,73,4512,67,4608,53.3C4704,40,4800,20,4896,16.7C4992,13,5088,27,5184,35C5280,43,5376,47,5472,45C5568,43,5664,37,5760,41.7C5856,47,5952,63,6048,63.3C6144,63,6240,47,6336,45C6432,43,6528,57,6624,60C6720,63,6816,57,6864,53.3L6912,50L6912,100L6864,100C6816,100,6720,100,6624,100C6528,100,6432,100,6336,100C6240,100,6144,100,6048,100C5952,100,5856,100,5760,100C5664,100,5568,100,5472,100C5376,100,5280,100,5184,100C5088,100,4992,100,4896,100C4800,100,4704,100,4608,100C4512,100,4416,100,4320,100C4224,100,4128,100,4032,100C3936,100,3840,100,3744,100C3648,100,3552,100,3456,100C3360,100,3264,100,3168,100C3072,100,2976,100,2880,100C2784,100,2688,100,2592,100C2496,100,2400,100,2304,100C2208,100,2112,100,2016,100C1920,100,1824,100,1728,100C1632,100,1536,100,1440,100C1344,100,1248,100,1152,100C1056,100,960,100,864,100C768,100,672,100,576,100C480,100,384,100,288,100C192,100,96,100,48,100L0,100Z"></path></svg>